<svg xmlns="http://www.w3.org/2000/svg" xmlns:xlink="http://www.w3.org/1999/xlink" preserveAspectRatio="xMidYMid meet" version="1.0" viewBox="-0.2 -0.4 456.9 522.0" zoomAndPan="magnify" style="fill: rgb(0, 0, 0);" original_string_length="35393"><g id="__id124_s0hsq8gg"><path d="M454.176,368.988c-1.123-19.87-1.797-39.769-3.195-59.619c-1.745-24.771-4.549-49.46-4.105-74.368 c0.197-11.038-0.03-22.165-2.817-32.982c-1.725-6.693-5.058-8.341-11.731-6.119c-2.675,0.891-5.223,2.49-7.949,2.847 c-11.983,1.568-23.975,3.202-36.116,2.982c-5.671-0.103-5.45-0.03-5.258-5.669c0.982-28.707,1.945-57.416,2.676-86.13 c0.224-8.786-3.981-11.948-12.227-8.83c-9.509,3.595-19.17,2.517-28.8,2.194c-5.453-0.183-10.943-1.216-16.078-3.457 c-2.683-1.172-4.139-2.223-0.878-4.642c1.865-1.384,2.834-3.513,1.721-5.969c-1.101-2.428-3.16-2.849-5.591-2.765 c-2.378,0.082-4.755-0.004-7.034,0.931c-1.462-12.563-0.929-24.937-0.351-37.312c0.473-10.144,2.234-20.21,1.74-30.417 c-0.298-6.159-6.425-11.397-11.341-9.036c-3.998,1.92-8.216,2.631-12.387,3.486c-7.204,1.477-13.912-0.548-20.141-4.206 c-1.051-0.617-2.545-1.38-1.028-3.075c2.452-2.739,0.48-4.386-1.688-5.644c-2.743-1.592-5.755-1.466-8.63-0.328 c-5.955,2.356-12.207,4.232-17.723,7.381c-19.458,11.107-40.296,19.361-60.139,29.654c-5.946,3.084-11.93,6.113-18.228,8.475 c-18.233,6.839-34.585,17.485-52.038,25.915c-3.805,1.838-8.534,4.307-9.235,8.645c-0.926,5.722-4.642,7.428-8.877,9.344 c-27.557,12.469-55.084,25.007-82.673,37.405c-3.256,1.463-5.491,3.699-6.691,6.833c-4.22,11.023-5.391,22.554-5.337,34.266 c0.038,8.235,0.136,16.472-0.018,24.704c-0.306,16.462-1.028,32.92-1.095,49.382c-0.078,19.134,1.001,38.289,0.435,57.401 c-0.988,33.391,0.069,66.799-1.326,100.181c-0.223,5.338,1.276,10.743,1.097,16.087c-0.63,18.848-0.469,37.692-0.581,56.541 c-0.065,10.921,9.003,17.838,15.998,19.648c3.761,0.973,7.413,2.131,11.023,3.507c18.732,7.141,36.997,6.161,55.017-2.702 c10.879-5.35,21.04-11.945,31.743-17.586c2.05-1.08,3.456-1.899,3.46,1.606c0.005,3.424,0.854,6.867,0.674,10.267 c-0.23,4.353,1.705,7.064,5.198,9.13c7.057,4.174,14.812,6.315,22.801,7.562c5.992,0.935,11.526-0.452,16.393-4.344 c4.197-3.356,8.578-6.482,13.108-9.884c1.2,6.413,6.26,8.468,11.427,10.233c3.661,1.251,7.448,2.13,11.178,3.179 c9.134,2.569,18.663,1.969,27.948,3.517c10.42,1.737,20.19,0.272,27.875-8.218c2.272-2.51,5.412-4.214,8.017-6.447 c2.342-2.007,3.317-1.258,3.567,1.461c0.637,6.923,4.927,10.595,10.875,13.501c13.84,6.764,28.955,9.082,43.564,13.151 c3.41,0.95,6.991,0.146,10.082-1.287c4.994-2.315,9.75-5.156,14.561-7.855c17.741-9.952,32.512-23.946,48.359-36.386 c17.516-13.749,35.368-27.163,51.962-42.077c6.766-6.08,11.349-13.166,11.322-22.856 C456.656,396.394,454.952,382.726,454.176,368.988z M34.842,278.11c-0.133,0.018-0.266,0.036-0.398,0.055 C34.577,278.146,34.71,278.128,34.842,278.11C34.843,278.11,34.842,278.11,34.842,278.11z" style="fill: rgb(0, 0, 0);"/></g><g id="__id125_s0hsq8gg"><path d="M306.446,298.771c-0.251,29.194,1.801,58.271,4.183,87.349c1.195,14.592,1.907,29.229,3.918,43.738 c3.073,22.169,5.67,44.407,9.543,66.465c0.979,5.578,1.348,11.265,1.968,16.905c0.306,2.781-0.63,4.642-3.753,3.706 c-14.669-4.395-30.014-6.562-43.905-13.546c-4.464-2.245-6.969-5.257-8.049-10.353c-3.969-18.719-5.917-37.73-8.771-56.608 c-2.432-16.083-4.833-32.176-6.86-48.314c-1.841-14.667-3.531-29.372-4.624-44.11c-1.823-24.59-4.576-49.137-3.962-73.874 c0.114-4.585,1.427-7.815,5.059-10.729c9.494-7.616,19.652-14.112,30.81-18.9c7.72-3.313,14.689-7.969,22.176-11.639 c21.409-10.495,42.962-20.696,64.447-31.035c1.106-0.532,2.357-1.335,3.222-0.157c1.128,1.537-0.472,2.439-1.431,3.235 c-1.721,1.428-3.481,2.859-5.401,3.988c-8.879,5.22-17.544,10.908-26.799,15.361c-14.777,7.11-29.143,15.074-44.298,21.406 c-10.491,4.383-19.915,10.845-30.141,15.76c-1.191,0.573-2.271,1.471-3.243,2.387c-2.645,2.491-2.265,4.777,1.168,6.086 c1.919,0.732,4.056,1.297,6.085,1.268c11.973-0.17,23.942,1.125,35.905,0.17c2.78-0.222,2.783,1.154,2.773,3.133 C306.421,279.898,306.446,289.335,306.446,298.771z M299.054,484.614c5.005,0.204,6.064-1.142,5.334-5.755 c-1.21-7.647-2.334-15.314-3.215-23.004c-2.255-19.701-5.796-39.247-6.683-59.117c-1.013-22.698-4.391-45.248-4.285-68.03 c0.033-7.029-0.461-14.065-0.85-21.09c-0.351-6.34-1.242-7.163-7.604-7.109c-6.289,0.054-12.624,0.336-18.725-1.385 c-3.476-0.98-4.273,0.201-4.259,3.355c0.055,12.273,1.214,24.508,2.174,36.7c2.045,25.988,7.24,51.614,9.821,77.587 c2.015,20.275,5.761,40.379,8.735,60.559c0.375,2.542,1.357,4.099,4.237,4.938C288.832,483.748,294.074,483.687,299.054,484.614z M280.457,290.986c1.641,0,3.309,0.187,4.915-0.051c1.735-0.257,4.569,0.552,4.539-2.288c-0.028-2.634-2.589-2.416-4.513-2.364 c-6.915,0.184-13.658-0.719-20.288-2.732c-2.401-0.729-4.937-1.095-7.44-1.36c-0.93-0.099-2.134,0.32-2.361,1.641 c-0.22,1.278,0.414,1.997,1.633,2.19C264.849,287.276,272.183,291.352,280.457,290.986z M307.682,499.517 c1.959-0.707,4.953,0.828,5.026-2.49c0.062-2.845-2.582-2.063-4.395-2.402c-8.578-1.607-17.282-2.591-25.674-5.153 c-1.473-0.449-3.653-1.464-4.434,0.336c-0.906,2.088,1.596,2.527,2.924,3.104C289.651,496.61,298.908,497.303,307.682,499.517z M279.114,237.044c21.767-11.451,43.989-21.973,66.184-32.554c6.72-3.204,13.226-6.831,20.244-9.426 c5.472-2.024,8.803-0.957,10.199,4.099c0.407,1.473,1.15,1.475,2.186,1.544c1.382,0.093,1.244-0.937,1.329-1.805 c0.262-2.67,0.746-5.338,0.756-8.008c0.078-19.153,0.108-38.306,1.042-57.442c0.401-8.209,1.079-16.407,0.759-24.636 c-0.185-4.757-1.301-5.601-5.607-4.133c-5.216,1.778-10.343,3.746-15.293,6.232c-25.845,12.982-52.315,24.637-78.602,36.675 c-7.034,3.221-7.11,2.973-6.49,10.457c0.172,2.083,0.19,4.198,0.055,6.283c-1.161,17.942-0.456,35.922-1.109,53.863 c-0.245,6.729,0.139,13.335,0.409,19.985C276.852,238.535,277.986,237.637,279.114,237.044z" style="fill: rgb(255, 255, 255);"/></g><g id="__id126_s0hsq8gg"><path d="M326.012,90.721c-2.94,3.789-6.621,6.603-10.867,8.285c-20.465,8.109-40.468,17.28-61.177,24.89 c-22.444,8.247-45.203,16.107-66.102,28.131c-1.161,0.668-2.421,1.283-3.352,2.207c-2.252,2.236-2.723,4.309,0.363,6.575 c3.86,2.835,8.409,3.031,12.73,3.669c10.473,1.546,21.024,2.562,31.544,3.789c0.148,0.017,0.307-0.015,0.448,0.025 c2.446,0.692,5.868-1.876,7.015,0.022c1.274,2.108,0.452,5.503,0.486,8.338c0.376,30.987,0.343,61.985,1.212,92.958 c1.063,37.888-0.159,75.781,0.844,113.654c0.427,16.115,2.065,32.197,3.147,48.294c0.08,1.193,0.165,2.39,0.165,3.584 c-0.011,21.107,0.106,42.214-0.483,63.319c-0.103,3.681-1.416,4.788-4.85,5.1c-6.383,0.58-12.448-1.376-18.69-1.825 c-9.534-0.686-18.894-2.188-28.068-5.106c-8.279-2.634-10.459-4.981-10.507-13.581c-0.157-28.456-0.141-56.914-0.502-85.367 c-0.284-22.446-0.209-44.908-1.496-67.331c-1.347-23.466-1.057-46.979-1.98-70.444c-1.265-32.161-2.131-64.317-2.64-96.495 c-0.12-7.576,2.611-12.022,9.242-15.01c18.466-8.322,36.971-16.464,55.864-23.866c23.024-9.021,45.599-19.247,68.556-28.503 c4.963-2.001,10.014-3.782,15.016-5.688C323.232,89.849,324.474,89.717,326.012,90.721z M209.407,188.013 c-5.225-0.715-10.383,0.722-14.765,4.676c-7.964,7.186-10.616,25.888-4.939,35.088c1.19,1.929,2.792,3.472,4.71,4.731 c12.388,8.134,29.419,1.162,32.877-13.461c0.974-4.119,1.342-8.31,0.899-12.475C227.1,196.345,223.509,186.26,209.407,188.013z M210.252,459.71c4.417-0.541,9.145-1.125,13.874-1.695c1.963-0.237,4.429-0.418,3.999-3.041c-0.473-2.882-3.058-1.599-4.778-1.353 c-9.356,1.342-18.677,1.491-28.011-0.224c-1.284-0.236-3.2-2.324-3.937,0.604c-0.59,2.344,1.268,3.18,3.007,3.704 C199.456,459.227,204.75,458.826,210.252,459.71z M199.821,471.211c-0.271,0-0.721-0.03-1.166,0.005 c-1.426,0.114-3.35-0.29-3.501,1.794c-0.154,2.12,1.885,2.039,3.244,2.263c3.522,0.58,7.07,1.012,10.615,1.433 c2.928,0.347,5.824,1.385,8.831,0.216c1.151-0.448,2.431-0.587,2.228-2.211c-0.162-1.296-1.183-1.499-2.303-1.612 C211.845,472.502,205.924,471.858,199.821,471.211z M243.244,262.23c1.317-2.936,3.63-4.866,5.99-6.877 c5.848-4.984,12.555-8.618,19.017-12.627c2.313-1.434,3.409-2.987,3.034-5.739c-1.706-12.511-0.695-25.092-0.706-37.637 c-0.013-14.211,0.473-28.423,0.824-42.632c0.085-3.439-0.78-3.886-3.998-2.412c-7.85,3.594-15.032,8.705-23.417,10.99 c-3.602,0.981-4.153,2.626-3.993,5.931c0.723,14.926,1.407,29.861,1.679,44.801c0.279,15.323,0.062,30.654,0.062,45.982 C242.238,262.083,242.741,262.156,243.244,262.23z M262.925,486.82c1.224-0.912,1.281-1.864,1.048-3.089 c-2.74-14.372-4.234-28.932-6.523-43.369c-3.811-24.039-7.01-48.153-9.389-72.369c-1.921-19.551-3.527-39.134-5.258-58.537 c0.026,32.131-0.455,64.431,2.339,96.71c1.975,22.818,1.614,45.776,1.725,68.67c0.038,7.888-0.298,15.833-0.51,24.719 C252.329,494.942,257.572,490.808,262.925,486.82z" style="fill: rgb(42, 9, 68);"/></g><g id="__id127_s0hsq8gg"><path d="M310.041,286.537c0-5.692,0.099-11.386-0.056-17.074c-0.051-1.887,0.371-2.894,2.17-3.744 c20.512-9.689,40.455-20.431,59.946-32.057c17.429-10.397,35.116-20.363,52.714-30.476c3.241-1.862,6.724-3.238,10.361-4.114 c2.294-0.552,3.861-0.086,4.515,2.776c1.811,7.92,2.354,15.932,2.521,24.008c0.312,15.121,0.274,30.262,1.108,45.355 c1.031,18.644,2.889,37.241,4.232,55.869c1.633,22.661,1.721,45.414,4.242,68.031c0.693,6.221,0.863,12.647,0.118,18.841 c-0.764,6.357-4.703,11.385-9.532,15.686c-16.44,14.64-34.146,27.738-51.328,41.438c-17.149,13.674-33.346,28.734-52.587,39.712 c-8.269,4.718-7.766,4.859-8.725-4.735c-1.171-11.722-3.164-23.362-4.77-35.041c-2.786-20.267-6.077-40.476-7.711-60.882 c-2.147-26.818-4.474-53.632-5.941-80.491C310.535,315.307,309.752,300.924,310.041,286.537z M388.252,372.38 c-2.019-1.401-4.216-1.299-6.402-0.609c-0.844,0.267-1.562,0.963-1.594,1.974c-0.019,0.621,0.313,1.193,1.015,1.25 c6.417,0.522,1.294,3.801,1.164,5.651c-0.094,1.335-1.482,2.792-3.256,2.38c-1.585-0.368-2.363-1.81-2.534-3.36 c-0.464-4.207,1.262-7.872,3.366-11.281c0.552-0.895,2.942-1.108,1.619-2.677c-1.32-1.565-3.161-0.641-4.155,0.813 c-2.642,3.862-4.48,8.167-4.2,12.88c0.202,3.396,1.811,6.654,5.693,7.03c3.487,0.338,5.848-1.966,7.049-5.129 c1.098-2.892,2.343-5.794,2.165-9.01c1.013,1.743,1.762,3.734,3.104,5.169c1.821,1.947,4.581,3.51,6.143,0.107 c2.448-5.335,3.176-11.129,1.992-16.991c-0.219-1.086-0.685-2.564-2.279-2.163c-1.344,0.338-0.936,1.696-0.908,2.68 c0.139,4.978,0.561,9.98-1.278,14.635c-1.09,0.131-1.402-0.426-1.668-0.934c-1.624-3.102-1.732-6.57-2.308-9.919 c-0.197-1.147-0.611-2.207-1.811-2.103c-1.401,0.122-1.182,1.411-1.14,2.462C388.125,367.617,388.18,369.999,388.252,372.38z M337.013,415.316c-0.607,0.744-1.157,1.123-1.271,1.605c-1.38,5.818-0.883,11.46,3.29,15.946c4.015,4.316,9.214,6.622,15.296,5.864 c8.472-1.056,13.075-6.754,15.729-14.158c1.095-3.056,2.055-3.28,5.178-2.63c13.777,2.869,21.488-0.264,23.509-12.407 c0.752-4.515,2.272-4.955,6.14-4.866c11.367,0.262,19.082-7.15,19.128-18.167c0.009-2.064,0.84-2.033,2.278-2.287 c7.278-1.282,9.906-3.864,11.268-10.791c0.278-1.412,0.339-2.932-1.153-3.494c-1.468-0.553-1.967,0.907-2.467,1.978 c-0.377,0.808-0.783,1.616-1.037,2.465c-1.409,4.708-4.979,6.227-9.338,5.719c-3.987-0.465-4.768,0.979-3.977,4.519 c1.335,5.977-0.902,10.509-6.071,13.639c-4.425,2.679-9.104,2.507-13.845,1.043c-5.231-1.616-5.642-1.281-4.832,4.145 c0.952,6.377-2.268,13.625-7.134,14.426c-5.392,0.888-11.035,1.465-15.687-2.897c-2.328-2.183-4.032-1.563-4.585,1.682 c-0.628,3.686-1.422,7.301-3.373,10.588c-3.624,6.104-9.2,8.683-15.446,7.013c-7.021-1.878-10.597-6.621-10.699-14.068 C337.892,418.745,338.346,417.21,337.013,415.316z M326.792,293.854c0.416-4.012,0.372-7.282,1.996-10.263 c3.381-6.209,9.794-7.537,14.365-3.014c1.42,1.405,1.634,4.685,4.093,4.165c2.889-0.611,1.543-3.842,1.982-5.82 c2.737-12.353,9.869-15.698,20.54-9.375c2.016,1.195,3.691,1.4,4.228-1.55c0.214-1.173,0.483-2.341,0.812-3.487 c2.669-9.289,12.567-13.22,20.028-7.969c7.378,5.194,7.378,5.194,8.776-3.872c1.175-7.62,7.409-12.204,12.97-9.391 c1.554,0.786,2.755,2.257,4.152,3.371c1.163,0.927,2.434,1.34,3.522-0.043c0.971-1.235,0.146-2.153-0.711-3.102 c-6.421-7.109-15.443-6.443-20.925,1.342c-2.049,2.91-2.32,6.36-3.596,9.511c-12.559-7.01-21.617-4.349-27.668,8.301 c-1.028,2.15-1.658,1.676-3.228,1.027c-7.507-3.105-15.156-0.608-19.493,6.198c-1.448,2.272-2.296,4.795-3.105,7.334 c-9.957-3.577-13.601-3.043-17.916,2.578C324.307,284.098,323.747,289.57,326.792,293.854z M400.121,299.056 c0.107-4.345-0.547-10.221-2.761-15.851c-0.838-2.133-2.251-3.353-4.696-3.457c-2.765-0.117-3.683,1.802-4.279,3.782 c-1.544,5.134-2.511,10.41-2.796,15.769c-0.271,5.102-0.109,10.207,3.045,14.575c1.476,2.044,3.143,4.245,6.171,3.628 c2.763-0.563,3.458-3.01,4.244-5.28C400.35,308.47,400.142,304.581,400.121,299.056z M403.531,286.413 c-0.182,7.016,0.719,13.945,1.728,20.865c0.147,1.01,0.034,2.321,1.55,2.19c1.484-0.128,1.255-1.457,1.226-2.444 c-0.082-2.827-0.196-5.657-0.405-8.477c-0.135-1.818-1.428-4.357,0.453-5.183c2.3-1.011,4.033,1.198,5.33,3.1 c0.586,0.86,0.971,1.869,1.616,2.675c1.48,1.847,1.439,6.705,4.605,4.953c3.128-1.731-0.219-5.014-1.407-7.305 c-2.793-5.388-3.458-8.58-2.325-14.583c0.083-0.438,0.155-0.885,0.166-1.329c0.113-4.373-2.805-8.154-6.413-8.327 c-3.869-0.186-5.918,2.322-6.112,7.595C403.467,282.229,403.531,284.322,403.531,286.413z M364.53,320.563 c0.587,1.817,1.124,3.663,1.784,5.463c0.53,1.446,0.652,3.71,2.952,3.079c1.975-0.541,1.209-2.64,0.908-3.847 c-1.911-7.66-4.259-15.187-9.032-21.647c-1.273-1.723-2.544-4.183-5.179-3.437c-2.829,0.801-2.624,3.578-2.834,5.956 c-0.7,7.925,0.892,15.754,1.005,23.652c0.033,2.322-1.626,6.694,1.601,6.711c2.909,0.015,2.144-4.538,1.799-6.908 C356.708,323.906,359.42,321.514,364.53,320.563z M371.828,454.489c0.913-0.473,1.743-0.8,2.462-1.291 c11.969-8.168,23.959-16.306,35.859-24.574c2.937-2.041,5.604-4.478,8.328-6.811c1.211-1.037,2.055-2.445,0.698-3.864 c-1.308-1.368-2.517-0.162-3.49,0.689c-11.861,10.365-25.077,18.836-38.179,27.474c-2.234,1.473-4.218,3.326-6.311,5.012 c-0.772,0.622-1.136,1.477-0.747,2.377C370.631,453.923,371.306,454.133,371.828,454.489z M379.093,317.742 c-0.393,0.085-0.787,0.17-1.18,0.255c-2.368-6.542-4.71-13.093-7.128-19.616c-0.437-1.178-0.781-2.908-2.655-2.311 c-1.929,0.614-1.042,2.025-0.695,3.326c1.843,6.917,4.223,13.641,7.289,20.102c1.009,2.127,2.214,4.792,5.113,4.177 c2.919-0.62,2.914-3.701,2.948-5.923c0.122-7.927,0.582-15.886-0.464-23.776c-0.266-2.006,0.813-5.819-1.905-5.661 c-3.449,0.2-2.024,4.082-1.955,6.328C378.698,302.344,379.655,310.026,379.093,317.742z M326.344,328.798 c-1.764-3.941-0.584-8.256-1.228-12.334c-0.079-0.501,4.903-1.798,7.535-2.736c0.279-0.099,0.52-0.309,0.801-0.395 c1.274-0.387,2.281-1.042,1.715-2.542c-0.536-1.421-1.741-1.453-2.989-0.979c-2.355,0.895-4.639,2.077-7.068,2.652 c-2.955,0.699-3.506,2.313-3.48,5.128c0.103,11.205,1.746,22.217,3.619,33.216c0.22,1.292-0.008,3.035,2.051,2.648 c1.713-0.321,1.716-1.933,1.553-3.267c-0.378-3.093-0.75-6.201-1.402-9.244c-0.996-4.65-1.726-9.031,4.024-11.277 c0.909-0.355,1.586-1.335,2.332-2.064c0.591-0.578,0.76-1.339,0.327-2.034c-0.519-0.834-1.305-0.512-1.956-0.146 C330.255,326.504,328.357,327.629,326.344,328.798z M422.39,271.544c0.215-1.578-0.536-3.534,1.638-4.214 c1.026-0.321,2.117-0.124,2.689,1.015c0.458,0.912,0.472,2.753,2.053,1.757c1.439-0.906,1.181-2.661,0.33-4.005 c-1.339-2.114-3.432-2.85-5.822-2.428c-2.684,0.474-4.032,2.327-4.444,4.926c-0.916,5.773,1.039,10.603,5.102,14.583 c3.002,2.94,4.669,6.443,5.475,10.501c0.433,2.178-0.075,3.723-2.013,4.922c-1.09,0.675-3.483,1.023-2.432,2.825 c0.998,1.712,3.174,1.123,4.856,0.37c2.423-1.084,3.691-2.947,3.501-5.667c-0.371-5.302-1.632-10.209-5.453-14.256 C425.125,278.967,422.269,275.985,422.39,271.544z M401.735,359.744c-0.529,2.497,0.866,5.173,0.924,8.006 c0.044,2.159,0.127,5.832,2.156,5.477c2.869-0.503,1.209-3.897,1.022-6.099c-0.13-1.541-1.27-3.647,0.234-4.418 c1.621-0.831,3.27,0.833,4.622,2.014c0.336,0.293,0.592,0.685,0.945,0.951c1.501,1.128,2.441,4.729,4.659,2.715 c2.261-2.054-1.226-3.62-2.14-5.42c-0.127-0.25-0.388-0.493-0.645-0.606c-2.64-1.15-2.178-2.598-0.875-4.694 c1.77-2.845,0.877-5.566-1.829-7.358c-2.53-1.675-6.455-0.269-8.088,2.508C401.504,354.888,401.751,357.129,401.735,359.744z M371.17,381.266c0.089-2.949,0.284-5.784-1.358-8.328c-1.816-2.814-5.973-3.638-7.911-1.536c-3.866,4.19-4.728,14.329-1.63,19.174 c2.548,3.985,6.798,3.809,9.153-0.402C370.994,387.364,371.448,384.316,371.17,381.266z M383.528,349.038 c-0.253-2.366-0.201-4.818-0.84-7.074c-0.725-2.559-1.826-4.837-5.421-4.862c-3.429-0.023-4.924,1.814-5.798,4.467 c-0.839,2.544-0.909,5.217-0.435,7.927c0.816,4.66,4.018,8.609,7.147,8.526C381.483,357.934,383.425,354.668,383.528,349.038z M350.223,379.464c-2.185-0.737-3.132-2.429-4.626-3.336c-1.369-0.831-1.771-4.085-3.896-2.406c-0.94,0.743,0.777,3.055,1.532,4.567 c0.131,0.263,0.3,0.56,0.535,0.711c6.087,3.911,6.992,10.17,7.555,16.593c0.052,0.593,0.056,1.252,0.324,1.75 c0.599,1.115,0.832,2.974,2.531,2.658c1.781-0.332,1.201-1.86,1.094-3.248c-0.599-7.786-2.762-15.562-0.3-23.403 c0.256-0.816,0.049-1.784,0.02-2.681c-0.031-0.941-0.269-1.887-1.355-1.993c-1.165-0.113-1.412,0.893-1.596,1.781 C351.439,373.367,350.864,376.281,350.223,379.464z M391.079,327.464c-2.108,0.167-8.04,5.311-7.754,6.977 c0.927,5.406,2.092,10.774,3.252,16.137c0.264,1.219,1.052,2.285,2.528,1.969c1.742-0.373,1.432-1.922,0.992-2.888 c-2.134-4.682,0.228-7.026,4.124-8.949c1.32-0.652,3.478-1.788,2.399-3.619c-0.968-1.643-2.912-0.742-4.377,0.14 c-0.383,0.23-0.761,0.523-1.181,0.627c-1.105,0.272-2.273,2.395-3.289,0.367c-0.657-1.312-1.262-3.153,0.408-4.503 c1.51-1.221,3.118-2.349,4.115-4.08C393.193,328.089,392.593,327.436,391.079,327.464z M425.293,362.745 c-0.725-3.882-1.127-8.39-2.475-12.594c-1.338-4.175-1.417-7.401,2.729-9.866c0.968-0.575,1.961-1.617,0.897-2.976 c-1.076-1.375-2.264-0.503-3.137,0.162c-3.081,2.342-6.073,4.804-9.062,7.264c-0.881,0.725-2.129,1.451-1.156,2.902 c0.791,1.179,1.969,1.457,3.111,0.625c2.806-2.043,2.868,0.645,3.15,1.997c0.91,4.359,1.425,8.801,2.356,13.154 c0.273,1.279,0.495,3.494,2.377,3.269C425.845,366.472,425.015,364.511,425.293,362.745z M345.3,341.917 c1.55,0.232,2.828-0.513,3.664-1.871c0.82-1.332,2.478-2.856,1.095-4.373c-1.619-1.776-2.545,0.549-3.463,1.353 c-2.277,1.994-2.841,0.305-3.135-1.394c-0.99-5.722-1.839-11.459-1.98-17.293c-0.072-2.97-0.557-5.936-0.963-8.889 c-0.125-0.906-0.732-1.648-1.831-1.561c-0.857,0.068-0.785,0.841-0.785,1.364c-0.001,10.005,0.435,19.978,2.84,29.745 C341.265,341.12,342.89,342.166,345.3,341.917z M386.362,459.842c0.988-0.605,1.945-1.032,2.709-1.685 c5.902-5.043,12.31-9.392,18.628-13.875c1.831-1.299,5.827-2.464,3.68-5.303c-1.612-2.131-3.819,1.4-5.817,2.266 c-0.533,0.231-0.958,0.705-1.448,1.046c-6.249,4.343-12.434,8.768-17.789,14.225c-0.581,0.592-1.625,1.044-1.311,2.095 C385.149,459.063,385.808,459.359,386.362,459.842z M102.946,91.107c1.553,5.941-0.479,9.207-5.838,11.811 c-9.538,4.634-19.035,9.385-29.059,12.771c-15.218,5.139-29.119,13.01-43.5,19.897c-2.376,1.138-3.921,3.046-3.83,5.548 c0.092,2.546,2.657,3.03,4.602,3.609c14.614,4.354,29.383,7.829,44.764,7.97c3.733,0.034,6.883-1.653,10.315-2.894 c1.162,3.929-0.02,7.569-0.568,11.157c-1.753,11.461-1.138,23.038-1.37,34.517c-0.835,41.316-4.137,82.573-2.998,123.934 c0.754,27.409-2.173,54.793-0.836,82.199c1.033,21.171-1.233,42.141-2.914,63.168c-0.643,8.038-0.644,16.132-0.767,24.204 c-0.046,3.034-0.452,4.549-4.246,5.099c-7.971,1.155-15.797,3.463-23.92,1.452c-11.572-2.864-22.83-6.622-33.112-12.784 c-3.807-2.281-4.035-6.419-4.145-10.339c-0.354-12.567,0.143-25.129,0.269-37.694c0.131-12.995-0.852-26.014-0.395-38.99 c1.109-31.449,0.518-62.903,0.854-94.352c0.157-14.652-1.297-29.345-0.679-43.963c1.329-31.433,1.647-62.858,1.58-94.308 c-0.017-8.155,0.794-16.383,3.579-24.281c1.583-4.49,3.97-7.4,8.563-9.43c25.771-11.388,51.375-23.155,77.02-34.827 C98.581,93.549,100.736,92.272,102.946,91.107z M51.137,415.865c0-1.896,0.187-3.566-0.03-5.182 c-1.502-11.162-4.774-21.618-13.396-29.472c-4.575-4.167-6.572-3.721-10.138,1.23c-1.135,1.576-2.385,3.089-3.348,4.765 c-9.321,16.232-11.651,32.884-3.282,50.344c1.733,3.614,6.965,5.239,6.641,9.118c-0.314,3.759-2.796,7.427-3.775,11.335 c-0.958,3.821,0.108,5.242,4.119,5.237c8.023-0.01,15.465-2.603,22.903-5.228c2.319-0.818,2.683-2.29,1.437-4.14 c-1.417-2.102-2.784-4.374-4.671-5.993c-3.949-3.387-3.88-6.746-2.068-11.434C48.114,429.754,52.692,423.454,51.137,415.865z M52.977,317.423c0.253-3.533-0.58-6.834-2.092-9.967c-2.089-4.329-5.286-7.317-10.338-7.371c-5.133-0.055-8.088,3.12-10.237,7.415 c-3.326,6.647-3.632,13.707-1.421,20.464c2.271,6.94,3.584,13.31,0.018,20.266c-1.518,2.963,0.078,5.437,4.118,5.338 c5.818-0.143,11.55-1.386,17.404-1.125c2.438,0.109,2.999-1.763,2.456-3.742c-0.466-1.7-1.221-3.362-2.1-4.897 c-1.56-2.724-1.842-5.212-0.659-8.349C52.293,329.703,52.266,323.473,52.977,317.423z M43.008,254.92 c0-1.346,0.162-2.715-0.027-4.034c-1.011-7.068-1.512-14.403-7.71-19.365c-6.584-5.271-11.772-3.576-13.761,4.685 c-2.509,10.422,0.941,20.026,6.395,28.384c3.377,5.175,3.768,9.662,2.279,14.955c-0.346,1.229-0.808,2.292,0.32,3.236 c1.219,1.02,2.435,0.524,3.753,0c3.998-1.588,8.022-3.121,12.087-4.524c4.748-1.639,5.556-3.286,2.165-6.736 c-4.547-4.627-6.982-9.634-5.498-16.153C43.044,255.226,43.015,255.07,43.008,254.92z M51.311,185.129 c-0.166-1.553-0.189-3.663-0.647-5.674c-1.135-4.981-5.288-8.94-9.589-9.323c-5.2-0.463-7.12,3.248-9.181,7.042 c-4.317,7.945-1.857,15.876,0.584,23.39c1.926,5.927,2.874,11.039-0.609,16.625c-1.802,2.89-0.08,4.55,3.143,4.239 c4.731-0.457,9.459-0.992,14.162-1.675c5.12-0.744,5.657-1.463,3.542-5.831c-2.599-5.366-4.215-10.615-2.633-16.716 C51.042,193.506,50.906,189.524,51.311,185.129z M76.63,490.838c13.597-6.233,26.06-14.55,39.327-21.391 c1.489-0.768,1.541-1.935,1.452-3.384c-0.845-13.87-1.912-27.733-2.391-41.616c-1.412-40.958-1.702-81.945-4.36-122.872 c-1.161-17.875-1.704-35.805-2.746-53.705c-1.321-22.69-1.276-45.446-2.804-68.14c-0.874-12.974-1.359-25.975-1.996-38.965 c-0.091-1.856-0.39-3.145-2.545-1.565c-4.127,3.025-8.843,4.985-13.368,7.276c-1.201,0.608-1.827,1.172-1.922,2.598 c-0.504,7.596-1.606,15.184-1.613,22.776c-0.025,25.168-1.196,50.3-1.9,75.445c-0.448,16.013-1.619,32.024-1.5,48.029 c0.106,14.365,0.946,28.739,0.479,43.107c-0.575,17.662-1.251,35.311-0.921,52.991c0.405,21.708,0.216,43.382-2.385,65.014 c-1.366,11.36-1.452,22.874-2.116,34.31C76.062,490.807,76.401,490.943,76.63,490.838z M389.312,304.495 c0.175,2.866,1.084,5.527,2.743,7.886c1.324,1.883,2.49,2.009,3.337-0.415c0.997-2.856,1.218-5.839,1.165-8.802 c-0.12-6.747-0.008-13.572-3.941-19.694C390.363,290.372,388.874,297.301,389.312,304.495z M411.907,279.413 c-0.181-1.375-0.557-3.184-2.537-3.083c-1.737,0.089-1.915,1.858-2.003,3.015c-0.223,2.93-0.074,5.889-0.074,9.61 C410.837,286.166,412.405,283.201,411.907,279.413z M356.981,315.774c0.032,2.597,0.796,3.722,3.727,2.443 c2.118-0.924,2.65-1.577,1.59-3.798c-1.409-2.952-2.52-6.031-5.327-9.081C356.972,309.275,356.942,312.525,356.981,315.774z M409.751,354.245c-0.157-0.933-0.923-1.725-1.918-1.312c-2.806,1.164-2.68,3.578-2.276,6.472 C408.227,358.418,410.264,357.296,409.751,354.245z M367.492,377.316c-0.197-1.712-0.969-3.429-2.911-3.374 c-1.756,0.05-2.178,1.805-2.329,3.301c-0.149,1.477-0.164,2.98-0.088,4.464c0.147,2.852-0.639,7.434,2.651,7.465 c3.298,0.031,2.656-4.509,2.712-7.393C367.527,380.29,367.661,378.786,367.492,377.316z M376.957,340.742 c-3.198,0.062-2.19,4.804-2.142,7.645c0.041,2.437,1.099,5.587,3.385,5.41c2.018-0.156,0.836-3.578,1.319-5.46 C378.897,345.535,380.208,340.679,376.957,340.742z M195.264,198.783c-4.43,7.088-4.92,14.825-3.05,22.847 c0.93,3.991,3.414,6.473,7.013,8.133c9.252,4.268,20.694-1.144,23.401-11.172c1.179-4.368,1.436-8.843,0.968-13.337 c-0.997-9.576-4.805-12.956-14.962-12.833C202.877,190.801,198.434,193.712,195.264,198.783z" style="fill: rgb(254, 194, 96);"/></g><g id="__id128_s0hsq8gg"><path d="M356.931,108.108c-8.57,4.044-17.122,8.128-25.714,12.125c-21.5,10.002-43.041,19.917-64.519,29.966 c-9.571,4.478-19.012,9.233-29.02,12.711c-1.855,0.645-3.724,1.102-5.689,1.022c-14.321-0.586-28.542-2.087-42.654-4.612 c-0.922-0.165-1.694-0.484-2.51-1.56c5.003-3.465,10.063-6.797,15.679-9.163c24.961-10.516,50.381-19.869,75.55-29.847 c14.37-5.696,29.043-10.846,42.737-18.185c1.286-0.689,2.261-0.821,3.099,0.365c1.357,1.918-0.803,1.944-1.546,2.311 c-15.467,7.626-30.693,15.659-47.186,21.168c-13.221,4.416-25.518,11.374-38.729,16.015c-8.005,2.812-15.992,5.707-23.377,9.965 c-1.869,1.078-5.167,2.656-4.096,4.499c1.53,2.632,3.867-0.362,5.586-1.318c6.538-3.636,13.583-6.037,20.467-8.842 c23.131-9.425,46.312-18.734,69.303-28.488c7.794-3.306,15.113-7.746,22.587-11.783c3.418-1.847,5.742,1.626,8.75,1.233 c0.331,1.87-1.213,1.766-1.934,2.125c-26.782,13.352-54.142,25.384-82.065,36.168c-7.621,2.943-15.195,6.179-22.019,10.815 c-1.008,0.684-2.73,1.519-1.758,3.086c0.651,1.049,2.201,0.798,3.295,0.154c17.565-10.332,37.412-15.45,55.599-24.409 c18.019-8.877,37.115-15.523,54.261-26.249c2.616-1.637,5.789,0.22,8.729-0.125c2.285-0.268,4.627-0.054,6.943-0.054 C356.777,107.502,356.854,107.805,356.931,108.108z M279.423,16.888c-1.256-0.448-2.198-0.429-3.339,0.267 c-13.908,8.491-29.102,14.495-43.406,22.118c-24.233,12.915-49.385,23.824-73.975,35.934c-1.372,0.676-2.691,2.039-4.616,1.2 c0.176-0.422,0.225-0.991,0.509-1.158c38.277-22.552,78.954-40.457,119.24-61.317c-2.911-0.122-3.456-3.816-6.385-1.829 c-8.802,5.972-18.707,9.793-28.276,14.247c-11.472,5.339-23.201,10.143-34.557,15.713c-15.113,7.412-30.025,15.24-44.917,23.089 c-6.351,3.347-12.85,6.221-19.638,8.54c-7.277,2.486-14.458,5.25-20.977,10.001c3.334,2.71,7.129,3.582,10.84,4.244 c7.186,1.283,14.084,3.545,21.566-0.796c21.773-12.632,44.975-22.491,67.69-33.27c15.879-7.535,31.078-16.448,47.397-23.085 c8.128-3.305,16.061-7.07,24.351-12.403C286.379,18.488,282.82,18.101,279.423,16.888z M368.381,207.26 c-2.202,1.963-4.935,3.353-7.501,4.88c-16.935,10.076-34.56,18.872-52.359,27.251c-13.364,6.291-26.609,12.769-39.577,19.823 c-1.61,0.876-3.699,1.224-4.469,3.29c1.127,0.695,2.247,0.993,3.49,0.994c11.683,0.002,23.373,0.271,35.044-0.09 c3.732-0.115,7.683-0.124,11.3-1.97c32.696-16.682,63.923-35.981,95.957-53.84c1.908-1.064,4.125-1.874,6.03-4.612 c-5.787,1.99-11.206,0.915-16.055,3.279c-15.152,7.386-28.471,18.023-43.99,24.76c-1.494,0.648-2.868,1.59-4.252,2.469 c-12.205,7.745-26.055,12.718-37.27,22.131c-0.226,0.189-0.512,0.31-0.777,0.448c-0.854,0.443-1.863,0.632-2.507-0.077 c-0.856-0.942,0.192-1.628,0.765-2.197c1.057-1.051,2.214-2.004,3.362-2.959c8.812-7.33,19.556-11.402,29.174-17.318 c15.442-9.499,32.349-16.411,46.344-27.189c-5.275-0.544-5.095-0.191-9.562,2.098c-6.954,3.564-12.828,8.798-19.691,12.395 c-21.789,11.419-44.003,22.038-64.993,34.95c-2.119,1.303-4.437,2.546-7.495,2.116c1.331-2.01,2.912-3.107,4.52-4.145 c10.533-6.796,21.287-13.229,32.451-18.93c18.027-9.206,36.325-17.909,52.633-29.317 C375.279,203.264,371.807,204.207,368.381,207.26z M70.306,140.596c8.229-6.993,17.827-11.486,27.213-16.313 c5.476-2.816,5.877-3.344,4.08-9.736c-13.268,8.393-26.312,17.199-42.958,20.931c1.432-3.284,3.423-4.4,5.336-5.34 c12.206-5.996,23.962-12.775,35.602-19.795c2.568-1.549,3.322-2.925,2.376-5.749c-24.042,14.479-51.926,20.44-76.059,35.672 c11.811,2.937,22.891,7.654,34.989,7.277c4.305-0.134,8.647,2.015,12.835,0.12c8.548-3.868,17.108-7.695,25.197-12.547 c3.532-2.119,4.115-4.509,2.977-8.354C91.529,131.979,81.592,137.899,70.306,140.596z M335.741,416.921 c-1.38,5.818-0.883,11.46,3.29,15.946c4.015,4.316,9.214,6.622,15.296,5.864c8.472-1.056,13.075-6.754,15.729-14.158 c1.095-3.056,2.055-3.28,5.178-2.63c13.777,2.869,21.488-0.264,23.509-12.407c0.752-4.515,2.272-4.955,6.14-4.866 c11.367,0.262,19.082-7.15,19.128-18.167c0.009-2.064,0.84-2.033,2.278-2.287c7.278-1.282,9.906-3.864,11.268-10.791 c0.278-1.412,0.339-2.932-1.153-3.494c-1.468-0.553-1.967,0.907-2.467,1.978c-0.377,0.808-0.783,1.616-1.037,2.465 c-1.409,4.708-4.979,6.227-9.338,5.719c-3.987-0.465-4.768,0.979-3.977,4.519c1.335,5.977-0.902,10.509-6.071,13.639 c-4.425,2.679-9.104,2.507-13.845,1.043c-5.231-1.616-5.642-1.281-4.832,4.145c0.952,6.377-2.268,13.625-7.134,14.426 c-5.392,0.888-11.035,1.465-15.687-2.897c-2.328-2.183-4.032-1.563-4.585,1.682c-0.628,3.686-1.422,7.301-3.373,10.588 c-3.624,6.104-9.2,8.683-15.446,7.013c-7.021-1.878-10.597-6.621-10.699-14.068c-0.02-1.439,0.434-2.974-0.899-4.868 C336.406,416.06,335.855,416.439,335.741,416.921z M328.787,283.591c3.381-6.209,9.794-7.537,14.365-3.014 c1.42,1.405,1.634,4.685,4.093,4.165c2.889-0.611,1.543-3.842,1.982-5.82c2.737-12.353,9.869-15.698,20.54-9.375 c2.016,1.195,3.691,1.4,4.228-1.55c0.214-1.173,0.483-2.341,0.812-3.487c2.669-9.289,12.567-13.22,20.028-7.969 c7.378,5.194,7.378,5.194,8.776-3.872c1.175-7.62,7.409-12.204,12.97-9.391c1.554,0.786,2.755,2.257,4.152,3.371 c1.163,0.927,2.434,1.34,3.522-0.043c0.971-1.235,0.146-2.153-0.711-3.102c-6.421-7.109-15.443-6.443-20.925,1.342 c-2.049,2.91-2.32,6.36-3.596,9.511c-12.559-7.01-21.617-4.349-27.668,8.301c-1.028,2.15-1.658,1.676-3.228,1.027 c-7.507-3.105-15.156-0.608-19.493,6.198c-1.448,2.272-2.296,4.795-3.105,7.334c-9.957-3.577-13.601-3.043-17.916,2.578 c-3.304,4.304-3.865,9.775-0.82,14.059C327.208,289.842,327.164,286.572,328.787,283.591z M224.125,458.014 c1.963-0.237,4.429-0.418,3.999-3.041c-0.473-2.882-3.058-1.599-4.778-1.353c-9.356,1.342-18.677,1.491-28.011-0.224 c-1.284-0.236-3.2-2.324-3.937,0.604c-0.59,2.344,1.268,3.18,3.007,3.704c5.051,1.522,10.345,1.121,15.847,2.004 C214.669,459.169,219.396,458.584,224.125,458.014z M198.656,471.216c-1.426,0.114-3.35-0.29-3.501,1.794 c-0.154,2.12,1.885,2.039,3.244,2.263c3.522,0.58,7.07,1.012,10.615,1.433c2.928,0.347,5.824,1.385,8.831,0.216 c1.151-0.448,2.431-0.587,2.228-2.211c-0.162-1.296-1.183-1.499-2.303-1.612c-5.925-0.598-11.846-1.242-17.949-1.889 C199.55,471.211,199.1,471.181,198.656,471.216z M137.499,136.974c-3.414-0.492-7.446,2.87-8.925,7.499 c-0.406,1.269-0.73,2.571-0.992,3.878c-0.232,1.156-0.18,2.66-1.731,2.656c-1.382-0.004-1.778-1.466-2.174-2.56 c-0.97-2.675-1.608-5.425-1.531-8.309c0.038-1.39-0.141-2.967-1.817-3.123c-1.984-0.185-2.533,1.655-2.498,3.051 c0.1,4.029,0.533,8.08,2.707,11.622c1.477,2.406,3.665,4.127,6.631,3.629c2.834-0.477,3.402-3.11,3.926-5.435 c0.525-2.33,0.911-4.701,2.276-6.706c0.755-1.109,1.738-2.073,3.309-1.96c1.975,0.143,1.671,1.849,2.022,3.017 c0.754,2.507,0.426,4.989-0.276,7.495c-0.246,0.878-0.84,2.298,0.311,2.853c1.259,0.606,2.237-0.573,3.003-1.428 c1.604-1.79,1.299-4.198,1.809-6.026C143.598,141.593,141.072,137.488,137.499,136.974z M136.561,428.996 c3.108-2.044,3.115-3.705-0.022-5.578c-1.406-0.839-2.907-1.52-4.295-2.387c-1.228-0.767-1.936-2.02-1.625-3.43 c0.349-1.58,1.9-1.148,3.009-1.269c2.828-0.308,5.668-0.511,8.501-0.775c1.299-0.121,2.433-0.603,2.387-2.113 c-0.052-1.696-1.481-1.661-2.651-1.665c-2.094-0.006-4.2,0.01-6.281,0.213c-3.316,0.323-7.308-0.332-8.62,3.964 c-1.355,4.437,0.857,7.453,4.657,9.564c0.325,0.18,0.489,0.649,0.83,1.126c-1.197,0.814-2.306,1.527-3.37,2.301 c-1.637,1.19-2.895,2.574-2.561,4.852c0.331,2.26,2.225,2.717,3.858,3.225c3.407,1.058,6.874,1.951,10.358,2.719 c0.992,0.219,2.59,0.739,2.92-1.046c0.291-1.574-1.072-2.024-2.189-2.345c-3.568-1.027-7.167-1.944-11.122-3.002 C132.129,430.811,134.602,430.285,136.561,428.996z M123.513,176.458c-2.451,2.368-1.776,5.862,0.991,6.198 c3.839,0.466,7.709,0.687,11.57,0.939c1.324,0.086,2.885,0.219,3.22-1.597c0.397-2.15-1.514-2.464-2.81-2.738 c-2.663-0.562-5.507,0.224-8.816-0.87c2.117-1.528,3.766-2.745,5.444-3.922c1.857-1.303,3.472-2.85,4.734-4.73 c1.547-2.306,1.603-4.593-1.616-4.91c-3.992-0.392-8.062-0.099-12.093,0.057c-1.253,0.049-2.447,1.066-2.47,2.251 c-0.031,1.639,1.492,2.042,2.891,2.079c2.318,0.061,4.638,0.017,7.832,0.017C128.934,172.011,126.026,174.03,123.513,176.458z M139.188,195.415c-0.791-3.754-4.314-6.442-8.442-6.637c-4.027-0.19-6.941,1.288-8.239,5.316 c-1.753,5.439-0.198,10.533,4.329,14.121c5.96,4.723,9.932,3.426,11.923-3.955c0.422-1.564,0.567-3.203,0.79-4.515 C139.421,198.079,139.462,196.714,139.188,195.415z M132.309,206.777c-2.178,0.551-6.893-4.512-6.592-6.937 c0.366-2.951,0.34-6.584,4.59-7.043c3.08-0.332,5.298,2.397,5.326,6.835C134.703,201.739,136.325,205.76,132.309,206.777z M134.648,281.334c-1.081-0.762-2.397-1.472-3.016-2.546c-1.057-1.834,1.876-11.902,3.499-13.422 c0.987-0.925,2.942-1.655,1.825-3.493c-1.039-1.709-2.566-0.866-3.933-0.175c-4.322,2.185-7.757,5.449-10.88,9.053 c-1.41,1.627-1.701,3.612-0.162,5.29c3.412,3.721,7.352,6.816,11.957,8.945c1.068,0.494,2.382,0.596,2.915-1.022 C136.648,282.643,135.635,282.03,134.648,281.334z M137.75,378.247c-3.118-1.059-5.988-0.431-7.522,2.11 c-2.297,3.805-3.603,8.043-1.876,12.688c1.518,4.081,4.927,5.811,8.587,6.098c3.801,0.299,4.82-3.388,5.767-6.368 c0.579-1.82,0.788-3.757,1.094-5.294C143.636,382.877,142.087,379.721,137.75,378.247z M136.324,394.729 c-2.186,0.664-5.121-3.414-4.903-6.865c0.173-2.747,0.454-6.149,4.174-6.213c2.943-0.051,4.144,2.451,4.463,5.546 C138.582,389.43,140.132,393.572,136.324,394.729z M126.667,368.564c0.055,1.796,0.767,3.497,2.808,3.255 c1.841-0.219,1.174-1.861,1.142-3.223c-0.092-3.991,0.137-7.898,5.929-7.261c0.977,0.107,2.041-0.38,3.035-0.689 c1.292-0.402,2.812-0.846,2.394-2.623c-0.34-1.444-1.729-1.408-2.949-1.325c-2.504,0.169-5.63,1.36-7.353,0.287 c-2.219-1.382-1.083-4.959-1.551-7.562c-0.256-1.424-0.532-3.25-2.57-3.052c-2.535,0.246-1.986,2.426-1.691,3.849 c0.769,3.704,0.832,7.42,0.781,11.161C126.649,363.774,126.595,366.171,126.667,368.564z M129.078,314.588 c4.189-2.457,7.464-5.971,10.608-9.57c1.119-1.281,0.682-2.909-0.853-3.839c-4.249-2.575-7.896-5.889-11.599-9.15 c-1.002-0.882-2.355-1.654-3.571-0.315c-1.25,1.376-0.232,2.58,0.741,3.483c2.519,2.336,4.94,4.878,7.796,6.724 c2.914,1.884,2.26,3.185,0.143,4.899c-1.971,1.596-3.913,3.228-5.855,4.859c-0.723,0.607-1.186,1.364-0.901,2.348 c0.253,0.873,0.99,1.004,1.977,1.023C127.947,314.939,128.581,314.88,129.078,314.588z M127.036,236.066 c-0.184-1.191-0.804-2.302-2.389-2.089c-1.341,0.18-1.602,1.14-1.616,2.264c-0.073,6.107,0.466,12.228-0.475,18.319 c-0.141,0.913,0.369,1.762,1.403,1.993c1.084,0.243,1.666-0.363,1.931-1.339c0.272-0.997,0.797-2.026,0.717-3 c-0.282-3.449,1.607-4.714,4.618-5.3c2.166-0.422,4.283-1.145,6.379-1.858c0.644-0.219,1.47-0.661,1.38-1.559 c-0.107-1.057-0.939-1.345-1.893-1.468c-3.21-0.417-6.107,1.02-9.259,1.59C127.574,241.046,127.417,238.539,127.036,236.066z M132.544,326.605c-2.224,0-4.457-0.115-6.669,0.046c-1.22,0.089-2.265,0.88-2.262,2.28c0.002,0.995,0.925,1.91,1.695,1.756 c4.557-0.915,9.169,0.006,13.717-0.585c1.139-0.148,1.953-0.78,1.931-2.028c-0.025-1.402-1.109-1.616-2.182-1.64 c-2.076-0.047-4.153-0.014-6.23-0.014C132.544,326.481,132.544,326.543,132.544,326.605z M125.047,220.435 c-1.097,0.454-1.82,1.222-1.544,2.338c0.299,1.208,1.365,1.477,2.507,1.083c2.166-0.748,4.444-0.335,6.628-0.676 c2.074-0.323,5.852,1.286,5.6-2.277c-0.184-2.607-3.716-0.952-5.2-1.324C129.99,219.517,127.465,219.434,125.047,220.435z M44.584,451.345c-5.384-4.886-7.019-10.073-3.4-17.113c2.331-4.533,4.929-9.301,5.385-14.58 c0.916-10.599-1.842-20.397-7.203-29.493c-1.208-2.049-2.562-4.03-4.612-5.422c-1.21-0.821-1.986-1.311-3.28,0.194 c-12.745,14.827-16,44.556-1.246,57.009c2.043,1.724,2.48,3.805,1.206,6.391c-1.566,3.179-2.796,6.528-3.459,10.262 c6.767,0.412,12.942-1.261,19.128-4.054C46.23,453.416,45.551,452.222,44.584,451.345z M45.705,348.97 c2.607-0.076,2.702-1.023,1.641-2.938c-1.666-3.008-3.507-5.982-2.019-9.672c2.098-5.202,2.271-10.782,2.968-16.236 c0.533-4.17,0.288-8.326-2.222-12.062c-3.312-4.929-7.908-4.974-11.007,0.059c-3.517,5.712-3.811,12.014-2.197,18.195 c2.041,7.818,4.545,15.442-1.545,23.682C37.114,349.564,41.404,349.096,45.705,348.97z M34.954,277.998 c3.6-1.085,7.199-2.17,12.252-3.692c-10.168-5.728-8.959-14.467-8.693-22.918c0.019-0.597,0.038-1.213-0.078-1.794 c-1.071-5.373-1.374-11.081-6.089-14.954c-3.544-2.912-5.412-2.403-6.627,1.995c-1.838,6.656-0.092,12.95,2.174,19.202 c2.654,7.323,8.975,13.486,7.108,22.252L34.954,277.998z M46.619,216.707c2.176-0.177,2.909-0.996,1.711-3.094 c-2.752-4.819-3.472-9.877-2.74-15.474c0.751-5.744,1.784-11.554,1.014-17.421c-0.44-3.35-2.416-5.485-5.589-6.22 c-3.162-0.733-3.938,2.063-5.046,4.089c-3.998,7.309-1.583,14.684,0.518,21.724c1.762,5.903,3.279,11.38-1.27,17.41 C39.829,217.307,43.222,216.982,46.619,216.707z" style="fill: rgb(255, 255, 255);"/></g></svg>