<?xml version="1.0" standalone="no"?>
<!DOCTYPE svg PUBLIC "-//W3C//DTD SVG 20010904//EN"
 "http://www.w3.org/TR/2001/REC-SVG-20010904/DTD/svg10.dtd">
<svg version="1.0" xmlns="http://www.w3.org/2000/svg"
 width="432.000000pt" height="550.000000pt" viewBox="0 0 432.000000 550.000000"
 preserveAspectRatio="xMidYMid meet">

<g transform="translate(0.000000,550.000000) scale(0.100000,-0.100000)"
fill="#000000" stroke="none">
<path d="M375 5488 c-179 -34 -331 -189 -364 -372 -15 -84 -15 -4648 0 -4732
34 -187 186 -339 373 -373 42 -8 641 -11 1969 -11 l1909 0 29 29 29 29 0 2692
0 2692 -29 29 -29 29 -1919 -1 c-1167 -1 -1938 -5 -1968 -11z m223 -2355 l2
-2203 -93 0 c-130 0 -234 -31 -325 -96 l-22 -17 2 2144 3 2144 21 46 c60 129
167 190 329 186 l80 -2 3 -2202z m3560 0 l2 -2203 -1700 0 -1700 0 0 2205 0
2205 1698 -2 1697 -3 3 -2202z m-488 -2473 l0 -110 -1500 0 c-1600 0 -1546 2
-1564 -45 -10 -28 -6 -69 10 -90 15 -20 30 -20 1532 -25 l1517 -5 3 -113 3
-112 -1638 2 -1638 3 -57 28 c-109 54 -171 151 -172 272 0 139 82 248 219 291
32 10 383 13 1663 13 l1622 1 0 -110z m488 -192 l-3 -303 -162 -3 -163 -2 0
305 0 305 165 0 165 0 -2 -302z"/>
<path d="M1662 3801 c-65 -23 -117 -70 -148 -136 -47 -98 -23 -185 49 -185 48
0 76 24 83 72 4 23 19 54 35 72 22 25 35 31 69 31 35 0 47 -6 71 -33 18 -20
29 -44 29 -61 0 -45 35 -81 79 -81 52 0 81 32 81 91 0 98 -84 205 -184 234
-64 19 -99 18 -164 -4z"/>
<path d="M3105 3811 c-51 -13 -91 -38 -132 -85 -90 -102 -84 -246 10 -246 48
0 76 24 83 72 4 23 19 54 35 72 22 25 35 31 69 31 35 0 47 -6 71 -33 18 -20
29 -44 29 -61 0 -15 9 -40 21 -55 28 -36 86 -36 119 -1 20 21 22 31 17 78 -16
158 -168 265 -322 228z"/>
<path d="M1943 3270 c-30 -12 -43 -41 -43 -94 0 -231 183 -460 417 -521 75
-20 209 -19 287 1 174 45 329 189 385 356 24 72 37 174 27 212 -14 55 -20 56
-558 55 -271 0 -503 -4 -515 -9z m902 -177 c-3 -16 -15 -47 -26 -70 l-21 -43
-339 0 -340 0 -24 53 c-45 95 -78 87 366 87 l391 0 -7 -27z"/>
</g>
</svg>
