<svg xmlns="http://www.w3.org/2000/svg" xmlns:xlink="http://www.w3.org/1999/xlink" preserveAspectRatio="xMidYMid meet" version="1.1" viewBox="-0.3 -23.9 525.2 536.5" x="0" xml:space="preserve" y="0" zoomAndPan="magnify" style="fill: rgb(0, 0, 0);" original_string_length="5006"><g><g id="__id111_s0hsq8gg"><path d="M486.567,252.69c38.357-94.943-8.238-203.116-104.02-240.271c-93.528-36.28-199.397,9.621-236.917,102.658 c-21.854,54.191-16.042,112.681,10.787,159.809c8.21,14.421,9.337,31.814,3.121,47.2l-10.095,24.988l173.186,69.967l10.095-24.988 c6.239-15.442,19.221-27.132,35.198-31.835C419.922,344.91,464.685,306.854,486.567,252.69z" style="fill: rgb(254, 194, 96);"/></g><g id="__id112_s0hsq8gg"><path d="M323.761 112.31L395.958 21.421 368.4 134.176 482.128 110.959 388.539 179.62 490.584 234.938 374.757 227.378 417.37 335.346 333.5 255.103 296.743 365.203 284.075 249.822 185.146 310.537 249.607 214.007 134.797 196.927 246.225 164.416 169.254 77.533 275.51 124.252 272.394 8.22z" style="fill: rgb(255, 255, 255);"/></g><g id="__id113_s0hsq8gg"><path d="M315.993,401.636l-151.076-61.035c-13.265-5.359-28.363,1.05-33.722,14.315v0 c-4.026,9.965-1.41,20.964,5.765,28.092c-12.689,41.351,5.8,87.052,45.71,107.234c44.235,22.369,98.126,4.969,121.03-38.814 c11.166,1.126,22.193-5.141,26.608-16.071l0,0C335.668,422.093,329.258,406.995,315.993,401.636z" style="fill: rgb(0, 0, 0);"/></g><g id="__id114_s0hsq8gg"><path d="M279.639,439.18c-45.577-12.755-90.363-29.648-131.235-53.41c-5.691-3.309-11.27-6.794-16.76-10.407 c1.287,2.825,3.08,5.423,5.316,7.645c-1.352,4.406-2.328,8.862-2.984,13.33c49.568,30.833,105.741,51.55,162.646,66.486 c2.599-3.57,4.972-7.369,7.079-11.396c4.886,0.493,9.745-0.43,14.036-2.54C304.983,445.886,292.269,442.715,279.639,439.18z" style="fill: rgb(85, 58, 105);"/></g></g><g id="__id115_s0hsq8gg"><path d="M197.959,381.429c32.934-59.936,62.728-121.312,89.818-184.104c6.898-15.99,13.538-32.102,20.005-48.271 c4.198-10.496,7.369-25.41-1.997-34.183c-13.834-12.958-29.398,4.364-37.48,14.887c-9.292,12.098-16.376,25.7-21.25,40.152 c-4.647,13.777-8.901,30.663-4.266,44.973c4.142,12.787,14.805,21.429,27.575,24.851c25.343,6.792,54.756-3.81,76.108-17.277 c11.82-7.455,22.652-16.706,31.721-27.343c9.895-11.606,22.956-28.086,15.176-44.1c-7.495-15.428-26.827-14.752-38.612-5.197 c-11.775,9.547-19.022,24.652-24.81,38.322c-13.386,31.613-24.576,64.306-36.742,96.408c-6.309,16.647-12.617,33.293-18.926,49.94 c-5.997,15.825-12.714,31.582-17.378,47.866c-2.418,8.443-3.952,17.005-4.214,25.796c-0.172,5.781,5.041,10.7,10.7,10.7 c6.25,0,10.141-4.923,10.7-10.7c1.379-14.25,6.029-27.897,10.909-41.265c5.175-14.178,10.396-28.339,15.595-42.508 c10.551-28.756,21.102-57.512,31.653-86.267c4.935-13.449,9.64-27.038,15.151-40.266c4.546-10.913,10.16-23.636,19.12-31.718 c1.439-1.298,3.069-2.528,4.952-3.045c1.219-0.335,2.427-0.231,3.003,0.358c2.011,2.054-1.403,7.742-3.066,10.433 c-6.109,9.89-14.232,18.658-23.01,26.226c-15.98,13.778-37.707,24.665-58.767,26.096c-8.195,0.557-17.797-0.034-24.385-5.506 c-8.744-7.263-6.662-20.193-4.415-29.95c2.83-12.287,7.433-24.025,13.828-34.895c2.937-4.992,6.183-9.849,9.875-14.317 c2.05-2.48,4.149-5.125,6.597-7.227c0.655-0.562,4.167-2.489,2.621-2.686c0.334,0.043,0.506,1.477,0.574,2.633 c0.103,1.743-0.145,3.474-0.489,5.172c-1.257,6.196-4.129,12.086-6.478,17.921c-5.504,13.671-11.158,27.28-16.838,40.879 c-25.573,61.233-53.543,121.63-83.243,180.967C183.736,382.253,194.094,388.463,197.959,381.429L197.959,381.429z" style="fill: rgb(0, 0, 0);"/></g><g><g id="__id116_s0hsq8gg"><path d="M43.443,58.272c6.01,4.897,12.014,9.801,17.959,14.777c4.756,3.981,9.644,7.468,14.745,10.991 c5.098,3.522,10.128,7.14,15.113,10.818c2.969,2.191,6.265,3.847,9.477,5.654c3.523,1.981,7.253,4.928,11.327,5.351 c3.138,0.326,5.174-2.642,4.809-5.472c-0.488-3.778-3.562-7.361-5.52-10.572c-2.096-3.436-4.112-6.925-6.685-10.03 c-4.065-4.906-8.192-9.761-12.412-14.535C82.36,54.058,70.489,45,58.93,35.581c-5.587-4.552-15.401-2.333-19.089,3.602 C35.633,45.954,37.481,53.413,43.443,58.272L43.443,58.272z" style="fill: rgb(85, 58, 105);"/></g><g id="__id117_s0hsq8gg"><path d="M12.552,136.431c7.642,1.302,15.283,2.611,22.908,4.013c6.1,1.122,12.072,1.748,18.246,2.303 c6.171,0.554,12.331,1.225,18.481,1.971c3.663,0.444,7.347,0.262,11.032,0.252c4.042-0.011,8.739,0.716,12.494-0.922 c2.892-1.262,3.201-4.848,1.489-7.131c-2.285-3.048-6.726-4.652-10.011-6.482c-3.516-1.958-6.989-4.001-10.758-5.436 c-5.954-2.267-11.937-4.46-17.961-6.535c-14.127-4.868-28.92-6.904-43.619-9.407c-7.104-1.21-14.552,5.556-14.838,12.538 C-0.312,129.558,4.97,135.139,12.552,136.431L12.552,136.431z" style="fill: rgb(85, 58, 105);"/></g><g id="__id118_s0hsq8gg"><path d="M32.255,209.811c7.421-2.241,14.845-4.475,22.295-6.618c5.961-1.715,11.585-3.816,17.359-6.072 c5.771-2.255,11.584-4.4,17.422-6.473c3.477-1.235,6.694-3.04,9.988-4.692c3.613-1.812,8.142-3.254,10.773-6.395 c2.026-2.419,0.704-5.767-1.845-7.047c-3.404-1.71-8.094-1.167-11.851-1.34c-4.02-0.186-8.04-0.466-12.054-0.071 c-6.341,0.625-12.673,1.329-18.991,2.155c-14.815,1.939-28.965,6.71-43.24,11.021c-6.899,2.083-10.55,11.46-7.694,17.837 C17.677,209.393,24.893,212.035,32.255,209.811L32.255,209.811z" style="fill: rgb(85, 58, 105);"/></g></g></svg>