<svg xmlns="http://www.w3.org/2000/svg" xmlns:xlink="http://www.w3.org/1999/xlink" data-name="Layer 1" preserveAspectRatio="xMidYMid meet" version="1.0" viewBox="-16.9 -13.3 459.7 443.0" zoomAndPan="magnify" style="fill: rgb(0, 0, 0);" original_string_length="2002"><g id="__id144_s0hsq8gg"><path d="M214.77,429.54A214.78,214.78,0,0,1,62.9,62.9,214.77,214.77,0,1,1,366.63,366.63,213.32,213.32,0,0,1,214.77,429.54Z" style="fill: rgb(255, 255, 255);"/></g><g id="__id145_s0hsq8gg"><path d="M409,214.77C409,322.06,322.06,409,214.77,409s-194.26-87-194.26-194.26,87-194.26,194.26-194.26S409,107.48,409,214.77Z" style="fill: rgb(42, 9, 68);"/></g><g id="__id146_s0hsq8gg"><path d="M366.63,214.77A151.87,151.87,0,1,1,214.77,62.9,151.86,151.86,0,0,1,366.63,214.77Z" style="fill: rgb(254, 194, 96);"/></g><g id="__id147_s0hsq8gg"><path d="M214.77,62.9A151.87,151.87,0,1,1,62.9,214.77,151.87,151.87,0,0,1,214.77,62.9m0-5.5A157.38,157.38,0,1,0,326,103.5,156.31,156.31,0,0,0,214.77,57.4Z" style="fill: inherit;"/></g><g id="__id148_s0hsq8gg"><path d="M214.77,372.63A157.84,157.84,0,1,1,326.4,326.4,156.86,156.86,0,0,1,214.77,372.63Zm0-314.73a156.87,156.87,0,1,0,110.92,45.95A155.84,155.84,0,0,0,214.77,57.9Zm0,309.23c-84,0-152.37-68.35-152.37-152.36S130.76,62.4,214.77,62.4s152.36,68.35,152.36,152.37S298.78,367.13,214.77,367.13Zm0-303.73C131.31,63.4,63.4,131.31,63.4,214.77s67.91,151.36,151.37,151.36,151.36-67.9,151.36-151.36S298.23,63.4,214.77,63.4Z" style="fill: inherit;"/></g><g id="__id149_s0hsq8gg"><path d="M290.27,224.27h0a3.51,3.51,0,0,0-3.49,3.35,72.09,72.09,0,0,1-144,0,3.51,3.51,0,0,0-3.49-3.35h0a3.49,3.49,0,0,0-3.5,3.65,79.08,79.08,0,0,0,158,0A3.49,3.49,0,0,0,290.27,224.27Z" style="fill: inherit;"/></g><g id="__id150_s0hsq8gg"><path d="M295.37,228a80.69,80.69,0,0,1-161.2,0,5,5,0,0,1,1.4-3.75,5.16,5.16,0,0,1,3.7-1.58,5.09,5.09,0,0,1,5.09,4.87,70.49,70.49,0,0,0,140.82,0,5.09,5.09,0,0,1,5.09-4.87,5.16,5.16,0,0,1,3.7,1.58A5,5,0,0,1,295.37,228Zm-120.6-31.76a15.84,15.84,0,1,0-15.83-15.84A15.85,15.85,0,0,0,174.77,196.24Zm80,0a15.84,15.84,0,1,0-15.83-15.84A15.85,15.85,0,0,0,254.77,196.24Z" style="fill: inherit;"/></g></svg>